HIERARCHY
ROOT Hips
{
	OFFSET -3.958830 18.904000 13.208200
	CHANNELS 6 Xposition Yposition Zposition Zrotation Yrotation Xrotation 
	JOINT LHipJoint
	{
		OFFSET 0.000000 0.000000 0.000000
		CHANNELS 3 Zrotation Yrotation Xrotation
		JOINT LeftUpLeg
		{
			OFFSET 1.800000 -1.400000 0.085000
			CHANNELS 3 Zrotation Yrotation Xrotation
			JOINT LeftLeg
			{
				OFFSET 2.215000 -6.000000 0.000000
				CHANNELS 3 Zrotation Yrotation Xrotation
				JOINT LeftFoot
				{
					OFFSET 2.500000 -6.900000 0.000000
					CHANNELS 3 Zrotation Yrotation Xrotation
					JOINT LeftToeBase
					{
						OFFSET 0.200000 -0.500000 1.950000
						CHANNELS 3 Zrotation Yrotation Xrotation
						End Site
						{
							OFFSET 0.000000 0.000000 0.000000
						}
					}
				}
			}
		}
	}
	JOINT RHipJoint
	{
		OFFSET 0.000000 0.000000 0.000000
		CHANNELS 3 Zrotation Yrotation Xrotation
		JOINT RightUpLeg
		{
			OFFSET -1.800000 -1.400000 0.085000
			CHANNELS 3 Zrotation Yrotation Xrotation
			JOINT RightLeg
			{
				OFFSET -2.215000 -6.000000 0.000000
				CHANNELS 3 Zrotation Yrotation Xrotation
				JOINT RightFoot
				{
					OFFSET -2.500000 -6.900000 0.000000
					CHANNELS 3 Zrotation Yrotation Xrotation
					JOINT RightToeBase
					{
						OFFSET -0.200000 -0.500000 1.950000
						CHANNELS 3 Zrotation Yrotation Xrotation
						End Site
						{
							OFFSET 0.000000 0.000000 0.000000
						}
					}
				}
			}
		}
	}
	JOINT LowerBack
	{
		OFFSET 0.000000 0.000000 0.000000
		CHANNELS 3 Zrotation Yrotation Xrotation
		JOINT Spine
		{
			OFFSET -0.087000 1.940000 -0.288900
			CHANNELS 3 Zrotation Yrotation Xrotation
			JOINT Spine1
			{
				OFFSET 0.000000 1.950000 0.060000
				CHANNELS 3 Zrotation Yrotation Xrotation
				JOINT Neck
				{
					OFFSET 0.000000 0.000000 0.000000
					CHANNELS 3 Zrotation Yrotation Xrotation
					JOINT Neck1
					{
						OFFSET 0.000000 1.600000 0.340000
						CHANNELS 3 Zrotation Yrotation Xrotation
						JOINT Head
						{
							OFFSET 0.000000 1.667000 -0.240000
							CHANNELS 3 Zrotation Yrotation Xrotation
							End Site
							{
								OFFSET 0.000000 0.000000 0.000000
							}
						}
					}
				}
				JOINT LeftShoulder
				{
					OFFSET 0.000000 0.000000 0.000000
					CHANNELS 3 Zrotation Yrotation Xrotation
					JOINT LeftArm
					{
						OFFSET 2.700000 1.550000 -0.730000
						CHANNELS 3 Zrotation Yrotation Xrotation
						JOINT LeftForeArm
						{
							OFFSET 5.450000 0.000000 0.000000
							CHANNELS 3 Zrotation Yrotation Xrotation
							JOINT LeftHand
							{
								OFFSET 3.450000 0.000000 0.000000
								CHANNELS 3 Zrotation Yrotation Xrotation
								JOINT LeftHandIndex1
								{
									OFFSET 0.750000 0.000000 0.000000
									CHANNELS 3 Zrotation Yrotation Xrotation
									End Site
									{
										OFFSET 0.000000 0.000000 0.000000
									}
								}
							}
						}
					}
				}
				JOINT RightShoulder
				{
					OFFSET 0.000000 0.000000 0.000000
					CHANNELS 3 Zrotation Yrotation Xrotation
					JOINT RightArm
					{
						OFFSET -2.700000 1.550000 -0.730000
						CHANNELS 3 Zrotation Yrotation Xrotation
						JOINT RightForeArm
						{
							OFFSET -5.450000 0.000000 0.000000
							CHANNELS 3 Zrotation Yrotation Xrotation
							JOINT RightHand
							{
								OFFSET -3.450000 0.000000 0.000000
								CHANNELS 3 Zrotation Yrotation Xrotation
								JOINT RightHandIndex1
								{
									OFFSET -0.750000 0.000000 0.000000
									CHANNELS 3 Zrotation Yrotation Xrotation
									End Site
									{
										OFFSET 0.000000 0.000000 0.000000
									}
								}
							}
						}
					}
				}
			}
		}
	}
}
MOTION
Frames: 7
Frame Time: 0.016667
0.589060 16.465730 -0.995820 1.646609 3.497988 8.252305 -15.095534 11.418554 3.691792 -5.562493 -8.228889 -26.749767 -7.246867 9.907995 40.199380 -0.172204 7.545853 2.041845 0.198530 -0.156590 0.146380 18.726391 -9.059685 4.565713 -13.873364 6.648936 -49.927017 11.746891 -11.437191 38.171761 -0.440883 -6.347602 2.107666 0.048240 0.521930 0.215100 -4.389359 -0.909315 -8.447666 17.281500 -4.243117 12.994893 -0.713016 -1.985667 -3.809905 2.179414 0.125777 -3.260643 -0.198908 -4.001388 27.376152 -9.643090 -0.852450 -5.204670 -28.171389 1.820454 -2.068079 -49.654310 -2.716774 -3.590859 -8.849279 -12.091275 -1.056965 -4.202864 2.765189 0.431190 0.378110 -0.308890 0.144290 23.209496 -1.025335 -1.678095 48.264410 8.142414 -5.504775 7.776655 22.652902 -0.153429 2.003924 -1.309506 -0.383670 0.309460 0.213600 -0.245410 
0.599450 16.435120 -0.986870 1.575579 4.287694 6.716973 -15.094371 11.485589 3.668404 -5.228404 -8.234324 -25.833406 -7.302842 10.330061 41.629056 -0.093245 7.844253 1.924135 0.204630 -0.164460 0.168350 18.721452 -8.999002 4.627842 -15.207943 6.426699 -49.853009 12.186820 -13.057233 42.165222 -0.633665 -7.172698 1.827086 0.020920 0.464680 0.199840 -4.378759 -1.130028 -8.604969 18.016777 -4.902204 14.477680 -1.430579 -2.298880 -4.043872 2.492420 -0.282865 -3.693581 -1.158335 -3.737708 29.748565 -9.257670 -1.159150 -6.446420 -28.138879 1.293284 -1.921767 -49.009317 -2.789468 -3.595741 -8.138536 -12.204863 -1.076405 -4.129939 2.733743 0.500050 0.308690 -0.260090 0.127840 22.478444 -0.247172 -1.066071 49.111327 8.037732 -6.017393 7.914865 24.447109 0.036014 2.007639 -1.261215 -0.377720 0.312980 0.212570 -0.259980 
0.608840 16.374660 -0.974470 1.552601 5.242735 4.364747 -15.100035 11.512908 3.653159 -4.418640 -8.407486 -24.840474 -7.907419 11.502402 44.499209 0.073541 8.530697 1.672319 0.204220 -0.173170 0.177890 18.725573 -8.849763 4.719735 -17.393141 6.129839 -49.745413 12.621748 -15.884874 48.969152 -0.968766 -8.598219 1.372739 -0.006760 0.395610 0.154150 -4.367148 -1.455503 -8.838607 18.888970 -5.904949 16.502860 -2.693293 -2.885931 -4.075341 2.823084 -1.245212 -4.427206 -3.235703 -3.033772 33.379212 -8.254000 -1.889260 -7.971070 -27.857132 0.342072 -1.578463 -47.871176 -2.772794 -3.655236 -6.592788 -12.496628 -1.120924 -4.024653 2.681991 0.584250 0.213070 -0.210740 0.105090 21.434028 1.281416 -0.012467 50.519507 7.824504 -6.991562 8.039710 27.767089 0.271879 2.001674 -1.198392 -0.381680 0.334330 0.217480 -0.274780 
0.611280 16.307550 -0.958600 1.365384 5.969799 1.788803 -15.097191 11.543773 3.613674 -3.282949 -8.376596 -23.829843 -8.508931 12.927029 47.502082 0.242077 9.316658 1.395566 0.200110 -0.197170 0.189070 18.732710 -8.759368 4.751119 -19.020901 6.189987 -48.888115 12.218711 -18.583749 56.245740 -1.328848 -10.027151 0.939509 -0.028690 0.346790 0.119160 -4.374511 -1.690696 -9.000853 19.659698 -6.654052 18.137094 -3.902401 -3.411640 -3.535003 3.059184 -2.070572 -5.268755 -5.122595 -2.094590 36.965828 -7.234190 -2.501090 -8.798170 -27.625839 -1.048290 -0.918556 -45.828014 -2.398254 -3.817356 -6.354001 -13.951000 -1.025326 -3.930816 2.659084 0.656300 0.140150 -0.181530 0.079980 20.695386 3.126995 1.080492 51.547464 7.841737 -8.069160 8.802219 32.227075 0.648546 1.976334 -1.167788 -0.395860 0.351880 0.231610 -0.294480 
0.613470 16.248200 -0.938300 0.992249 6.408747 -0.521328 -15.070260 11.560858 3.528863 -2.192883 -8.079653 -22.896131 -8.629399 14.102480 50.028658 0.395830 9.976184 1.205808 0.166580 -0.240370 0.184150 18.763444 -8.733165 4.751966 -19.947708 6.619181 -47.820114 11.104951 -20.887649 63.460964 -1.671502 -11.338010 0.592940 -0.052470 0.355460 0.068600 -4.453300 -1.767677 -9.056683 20.856707 -7.233726 19.046689 -5.298462 -3.875426 -2.810451 3.160133 -3.022098 -5.806818 -7.220394 -1.334019 39.475682 -6.803090 -3.249780 -8.690700 -27.482781 -1.667639 -0.471899 -43.422818 -1.718711 -4.230625 -7.190848 -17.366806 -0.672294 -3.864548 2.611789 0.686580 0.109970 -0.184310 0.068450 20.260402 4.191141 1.914173 51.991528 7.742243 -9.114748 11.436429 38.231756 1.671155 1.948672 -1.157291 -0.431210 0.411510 0.246390 -0.296400 
0.611180 16.186660 -0.899570 0.913706 6.781515 -2.201718 -15.030818 11.523122 3.449970 -1.530810 -7.747000 -21.995485 -8.714794 15.152825 52.164267 0.553627 10.530684 1.044777 0.144940 -0.267410 0.144360 18.808378 -8.782656 4.702507 -20.582284 6.930144 -46.513264 9.875500 -22.701738 69.390409 -1.941954 -12.422232 0.334987 -0.068240 0.372940 0.052250 -4.574921 -1.644595 -9.042733 21.542080 -7.315820 18.741672 -6.652457 -4.229471 -1.927453 3.147010 -3.505268 -6.099421 -8.327195 -0.719782 40.811489 -6.490260 -3.721820 -6.890030 -26.281894 -1.343379 -0.307651 -41.531983 -1.552185 -4.336953 -8.729914 -21.007426 -0.054885 -3.835130 2.660428 0.663070 0.121250 -0.218200 0.076230 19.024014 3.913734 2.451810 53.408356 7.666876 -9.482065 16.025183 44.352263 3.594916 1.920372 -1.247672 -0.432840 0.404210 0.255160 -0.287060 
0.594700 16.133520 -0.859170 1.016379 7.225612 -3.714030 -15.020502 11.554876 3.409323 -0.812214 -7.400770 -21.071808 -9.023445 16.176763 53.774324 0.692181 11.021488 0.903457 0.142660 -0.278470 0.139370 18.807080 -8.881140 4.571081 -20.606945 7.234504 -44.633792 8.024518 -23.588891 74.419682 -2.163694 -13.200529 0.148293 -0.081130 0.385740 0.078570 -4.593682 -1.602196 -9.008076 21.219651 -7.099529 18.707189 -7.188970 -4.458453 -1.113890 3.046379 -3.604162 -6.184549 -8.691552 -0.537949 41.162100 -6.775020 -3.887020 -6.288470 -24.900137 -0.618185 -0.383428 -39.690698 -1.778890 -4.196450 -11.043416 -24.801467 0.848721 -3.830538 2.718708 0.650260 0.138010 -0.221210 0.080000 17.902545 3.013707 2.736425 54.243352 7.629145 -9.190139 23.132858 51.053467 7.272750 1.904638 -1.366174 -0.416440 0.388860 0.259650 -0.278970 
